<svg width="50" height="50" viewBox="0 0 50 50" fill="none" xmlns="http://www.w3.org/2000/svg">
<path d="M30.1172 7.50825C30.1569 7.35944 30.2255 7.21991 30.3191 7.09764C30.4128 6.97537 30.5296 6.87275 30.6629 6.79566C30.7962 6.71856 30.9435 6.66851 31.0961 6.64835C31.2488 6.62819 31.404 6.63833 31.5528 6.67818C34.3832 7.4165 36.9656 8.89607 39.034 10.9645C41.1024 13.0329 42.582 15.6153 43.3203 18.4458C43.3602 18.5945 43.3703 18.7497 43.3502 18.9024C43.33 19.055 43.2799 19.2023 43.2029 19.3356C43.1258 19.4689 43.0231 19.5857 42.9009 19.6794C42.7786 19.773 42.6391 19.8416 42.4903 19.8813C42.3915 19.9076 42.2897 19.9207 42.1875 19.9204C41.9293 19.9205 41.6783 19.8354 41.4735 19.6782C41.2686 19.5211 41.1214 19.3007 41.0547 19.0512C40.4208 16.62 39.1501 14.4017 37.3735 12.625C35.5968 10.8484 33.3786 9.57767 30.9473 8.9438C30.7985 8.90413 30.6589 8.83551 30.5367 8.74187C30.4144 8.64823 30.3118 8.53141 30.2347 8.39809C30.1576 8.26476 30.1075 8.11755 30.0874 7.96486C30.0672 7.81218 30.0774 7.65702 30.1172 7.50825ZM29.3848 15.1938C32.2266 15.9516 34.0469 17.7719 34.8047 20.6137C34.8714 20.8632 35.0186 21.0836 35.2235 21.2407C35.4283 21.3979 35.6793 21.483 35.9375 21.4829C36.0397 21.4832 36.1415 21.4701 36.2403 21.4438C36.3891 21.4041 36.5286 21.3355 36.6509 21.2419C36.7731 21.1482 36.8758 21.0314 36.9529 20.8981C37.0299 20.7648 37.08 20.6175 37.1002 20.4649C37.1203 20.3122 37.1102 20.157 37.0703 20.0083C36.0938 16.354 33.6446 13.9047 29.9903 12.9282C29.8415 12.8884 29.6864 12.8784 29.5337 12.8986C29.381 12.9188 29.2339 12.9688 29.1006 13.0459C28.8313 13.2016 28.635 13.4578 28.5547 13.7583C28.4744 14.0587 28.5168 14.3787 28.6724 14.6479C28.8281 14.9172 29.0843 15.1135 29.3848 15.1938ZM44.9004 34.1391C44.5658 36.6923 43.3128 39.0363 41.3758 40.7329C39.4387 42.4295 36.95 43.3626 34.375 43.3579C19.0821 43.3579 6.64064 30.9165 6.64064 15.6235C6.63571 13.0494 7.56803 10.5615 9.26344 8.6245C10.9589 6.68755 13.3014 5.43404 15.8535 5.0981C16.441 5.0267 17.0358 5.14784 17.5486 5.44332C18.0614 5.7388 18.4645 6.19267 18.6973 6.73677L22.8184 15.936C23.0003 16.3524 23.0756 16.8077 23.0374 17.2606C22.9992 17.7134 22.8488 18.1496 22.5996 18.5297C22.5745 18.5684 22.5471 18.6056 22.5176 18.6411L18.4024 23.5356C18.3774 23.5863 18.3644 23.6421 18.3644 23.6987C18.3644 23.7552 18.3774 23.811 18.4024 23.8618C19.8985 26.9243 23.1094 30.1118 26.2149 31.6059C26.2667 31.6296 26.3234 31.6408 26.3803 31.6388C26.4373 31.6367 26.493 31.6215 26.543 31.5942L31.3653 27.4926C31.3997 27.4627 31.4362 27.4353 31.4746 27.4106C31.853 27.1583 32.2884 27.0044 32.7413 26.9628C33.1942 26.9212 33.6503 26.9932 34.0684 27.1723L43.2949 31.3071C43.8318 31.545 44.2778 31.9495 44.5669 32.4606C44.8561 32.9717 44.973 33.5623 44.9004 34.145V34.1391ZM42.5781 33.8501C42.5847 33.7684 42.5654 33.6867 42.523 33.6166C42.4806 33.5465 42.4172 33.4915 42.3418 33.4594L33.1133 29.3247C33.0629 29.3052 33.0089 29.2969 32.9549 29.3003C32.901 29.3036 32.8484 29.3186 32.8008 29.3442L27.9805 33.4458C27.9453 33.4751 27.9082 33.5024 27.8711 33.5278C27.4779 33.79 27.0235 33.9458 26.5521 33.98C26.0808 34.0143 25.6086 33.9257 25.1817 33.7231C21.5957 31.9907 18.0215 28.4497 16.2891 24.8969C16.0853 24.4725 15.9946 24.0026 16.0258 23.5328C16.0569 23.063 16.2088 22.6091 16.4668 22.2153C16.492 22.1761 16.52 22.1389 16.5508 22.104L20.6641 17.2094C20.6876 17.1583 20.6998 17.1026 20.6998 17.0463C20.6998 16.99 20.6876 16.9344 20.6641 16.8833L16.5508 7.67622C16.5237 7.60233 16.4748 7.53836 16.4107 7.49271C16.3466 7.44705 16.2701 7.42183 16.1914 7.42036H16.1465C14.1601 7.68461 12.3377 8.66283 11.0197 10.1724C9.70176 11.6819 8.97828 13.6196 8.98439 15.6235C8.98439 29.6235 20.375 41.0141 34.375 41.0141C36.3792 41.0202 38.3171 40.2964 39.8267 38.978C41.3363 37.6597 42.3143 35.8369 42.5781 33.8501Z" fill="#333333"/>
</svg>
