<svg width="48" height="48" viewBox="0 0 48 48" fill="none" xmlns="http://www.w3.org/2000/svg">
<path d="M37.74 7H8C6.67392 7 5.40215 7.52678 4.46447 8.46447C3.52678 9.40215 3 10.6739 3 12V33.74C3 35.0661 3.52678 36.3378 4.46447 37.2755C5.40215 38.2132 6.67392 38.74 8 38.74H37.74C39.0661 38.74 40.3378 38.2132 41.2755 37.2755C42.2132 36.3378 42.74 35.0661 42.74 33.74V12C42.74 10.6739 42.2132 9.40215 41.2755 8.46447C40.3378 7.52678 39.0661 7 37.74 7ZM8 9H37.74C38.497 8.99782 39.2265 9.28402 39.78 9.80042C40.3336 10.3168 40.6697 11.0246 40.72 11.78C35.78 14.42 30.82 17.04 25.86 19.68C25.189 20.1005 24.479 20.4555 23.74 20.74C23.1598 20.8545 22.5619 20.8442 21.986 20.7097C21.4101 20.5752 20.8695 20.3196 20.4 19.96C17.56 18.46 14.72 16.94 11.9 15.44C9.62 14.24 7.3 13.02 5.02 11.8C5.06638 11.0414 5.40065 10.3292 5.9545 9.80879C6.50836 9.28839 7.24002 8.99909 8 9ZM40.74 33.74C40.74 34.5356 40.4239 35.2987 39.8613 35.8613C39.2987 36.4239 38.5356 36.74 37.74 36.74H8C7.20435 36.74 6.44129 36.4239 5.87868 35.8613C5.31607 35.2987 5 34.5356 5 33.74V14.07C9.72 16.55 14.42 19.07 19.14 21.57C19.9833 22.087 20.8911 22.4905 21.84 22.77C23.2288 22.9958 24.6521 22.704 25.84 21.95C28.74 20.43 31.62 18.89 34.52 17.37C36.6 16.25 38.66 15.17 40.74 14.07V33.74Z" fill="#333333"/>
</svg>
