<svg width="46" height="46" viewBox="0 0 46 46" fill="none" xmlns="http://www.w3.org/2000/svg">
<g clip-path="url(#clip0_137_164)">
<path fill-rule="evenodd" clip-rule="evenodd" d="M23.0013 19.1667C20.8853 19.1667 19.168 17.4493 19.168 15.3333C19.168 13.2173 20.8853 11.5 23.0013 11.5C25.1173 11.5 26.8346 13.2173 26.8346 15.3333C26.8346 17.4493 25.1173 19.1667 23.0013 19.1667ZM23.0013 9.58333C19.8254 9.58333 17.2513 12.1574 17.2513 15.3333C17.2513 18.5092 19.8254 21.0833 23.0013 21.0833C26.1772 21.0833 28.7513 18.5092 28.7513 15.3333C28.7513 12.1574 26.1772 9.58333 23.0013 9.58333ZM9.58464 14.5705C9.58464 7.82958 15.8541 1.91667 23.0013 1.91667C30.1486 1.91667 36.418 7.82958 36.418 14.5705C36.418 21.1926 31.5056 29.0279 23.0013 42.4139C14.3974 28.8573 9.58464 21.1926 9.58464 14.5705ZM23.0013 0C14.9551 0 7.66797 6.52242 7.66797 14.5705C7.66797 22.6167 14.3169 32.223 23.0013 46C31.6857 32.223 38.3346 22.6167 38.3346 14.5705C38.3346 6.52242 31.0494 0 23.0013 0Z" fill="#333333"/>
</g>
<defs>
<clipPath id="clip0_137_164">
<rect width="46" height="46" fill="white"/>
</clipPath>
</defs>
</svg>
