<svg width="50" height="50" viewBox="0 0 50 50" fill="none" xmlns="http://www.w3.org/2000/svg">
<path d="M30.4961 7.61674C30.5481 7.41679 30.6771 7.24555 30.855 7.1405C31.0329 7.03545 31.2451 7.00514 31.4453 7.0562C34.2112 7.77659 36.7348 9.22197 38.7557 11.2432C40.7766 13.2644 42.2215 15.7882 42.9414 18.5542C42.9926 18.7542 42.9625 18.9662 42.8578 19.144C42.7532 19.3219 42.5824 19.4511 42.3828 19.5035C42.3193 19.5216 42.2536 19.5308 42.1875 19.5308C42.0148 19.5302 41.8471 19.4724 41.7106 19.3664C41.5742 19.2604 41.4768 19.1121 41.4336 18.9449C40.7815 16.4489 39.4762 14.1717 37.652 12.3476C35.8279 10.5234 33.5507 9.21811 31.0547 8.56596C30.8551 8.51359 30.6843 8.38437 30.5797 8.20653C30.475 8.02869 30.445 7.81666 30.4961 7.61674ZM29.4922 14.816C32.4219 15.6031 34.3965 17.5777 35.1836 20.5074C35.2268 20.6746 35.3242 20.8229 35.4606 20.9289C35.5971 21.0349 35.7648 21.0927 35.9375 21.0933C36.0036 21.0933 36.0693 21.0841 36.1328 21.066C36.3326 21.0124 36.503 20.8817 36.6067 20.7027C36.7103 20.5237 36.7387 20.3108 36.6856 20.1109C35.7481 16.5953 33.3946 14.2515 29.8828 13.3062C29.6877 13.2685 29.4854 13.3065 29.3173 13.4127C29.1493 13.5189 29.028 13.6851 28.9782 13.8775C28.9284 14.07 28.9538 14.2742 29.0493 14.4486C29.1448 14.6229 29.3032 14.7543 29.4922 14.816ZM44.5196 34.0972C44.1954 36.5561 42.9868 38.8127 41.1198 40.4454C39.2528 42.078 36.8552 42.9749 34.375 42.9683C19.2969 42.9683 7.03127 30.7027 7.03127 15.6246C7.02613 13.1454 7.92363 10.7492 9.55613 8.88342C11.1886 7.01765 13.4445 5.80995 15.9024 5.48588C16.4059 5.42467 16.9157 5.52846 17.3552 5.78168C17.7947 6.03489 18.1403 6.42386 18.3399 6.89018L22.461 16.0972C22.615 16.4542 22.6778 16.8439 22.6437 17.2313C22.6096 17.6186 22.4797 17.9914 22.2656 18.316C22.2481 18.3414 22.2305 18.3667 22.211 18.3902L18.0703 23.314C18.0054 23.4219 17.9681 23.5442 17.962 23.6699C17.9559 23.7957 17.981 23.921 18.0352 24.0347C19.5664 27.1695 22.8496 30.4273 26.0215 31.9585C26.136 32.0117 26.2619 32.0357 26.388 32.0286C26.514 32.0214 26.6364 31.9833 26.7442 31.9175L31.6016 27.7925L31.6758 27.7359C32.0009 27.5212 32.3743 27.3909 32.7624 27.3568C33.1505 27.3227 33.5409 27.3858 33.8985 27.5406L43.1211 31.6734C43.5828 31.8742 43.9675 32.2184 44.2183 32.655C44.4691 33.0915 44.5727 33.5972 44.5137 34.0972H44.5196ZM42.4981 33.0972L33.2715 28.9644C33.1594 28.9173 33.0377 28.8976 32.9165 28.9068C32.7953 28.9159 32.678 28.9538 32.5742 29.0171L27.7344 33.1421L27.6621 33.1968C27.3256 33.4215 26.9367 33.5552 26.5331 33.585C26.1296 33.6148 25.7252 33.5396 25.3594 33.3667C21.8438 31.6695 18.3457 28.1949 16.6485 24.7203C16.4739 24.3572 16.3959 23.9553 16.4219 23.5533C16.4479 23.1514 16.577 22.7629 16.7969 22.4253C16.8145 22.398 16.834 22.3746 16.8535 22.3492L20.9922 17.4273C21.0542 17.3218 21.0906 17.2032 21.0984 17.0811C21.1062 16.9589 21.0852 16.8367 21.0371 16.7242L16.9082 7.51713C16.85 7.3744 16.7509 7.25207 16.6234 7.16553C16.4959 7.07899 16.3456 7.03212 16.1914 7.03081C16.1602 7.02887 16.1289 7.02887 16.0977 7.03081C14.0161 7.30661 12.1063 8.3311 10.7253 9.91273C9.34422 11.4944 8.5865 13.5248 8.59377 15.6246C8.59377 29.8394 20.1602 41.4058 34.375 41.4058C36.4747 41.4131 38.5052 40.6554 40.0868 39.2743C41.6685 37.8933 42.693 35.9834 42.9688 33.9019C42.9868 33.7343 42.9501 33.5654 42.8642 33.4204C42.7783 33.2753 42.6478 33.162 42.4922 33.0972H42.4981Z" fill="#333333"/>
</svg>
