<svg width="20" height="20" viewBox="0 0 20 20" fill="none" xmlns="http://www.w3.org/2000/svg">
<path d="M19.8256 3.96903C19.756 3.88583 19.6691 3.81891 19.5709 3.773C19.4727 3.72709 19.3655 3.7033 19.2571 3.70332H4.32174L3.86901 1.21654C3.80701 0.875219 3.62717 0.566488 3.36087 0.34417C3.09456 0.121852 2.75867 5.01377e-05 2.41177 0H0.740658C0.544224 0 0.355834 0.0780339 0.216934 0.216935C0.0780334 0.355837 0 0.544227 0 0.740664C0 0.9371 0.0780334 1.12549 0.216934 1.26439C0.355834 1.40329 0.544224 1.48133 0.740658 1.48133H2.40714L4.77354 14.4698C4.84325 14.855 5.01348 15.2149 5.26701 15.5132C4.91709 15.84 4.66453 16.2574 4.53733 16.719C4.41013 17.1806 4.41326 17.6684 4.54637 18.1284C4.67949 18.5883 4.93739 19.0024 5.29147 19.3247C5.64556 19.647 6.08199 19.865 6.55238 19.9544C7.02277 20.0438 7.50873 20.0012 7.95638 19.8313C8.40404 19.6614 8.79588 19.3708 9.08847 18.9918C9.38107 18.6128 9.56297 18.1601 9.61401 17.684C9.66506 17.208 9.58325 16.727 9.37766 16.2946H13.5828C13.4171 16.6415 13.3313 17.0212 13.3319 17.4056C13.3319 17.9183 13.4839 18.4195 13.7687 18.8458C14.0536 19.2721 14.4584 19.6044 14.9321 19.8006C15.4058 19.9968 15.927 20.0481 16.4299 19.9481C16.9327 19.8481 17.3947 19.6012 17.7572 19.2386C18.1197 18.8761 18.3666 18.4142 18.4667 17.9113C18.5667 17.4085 18.5153 16.8872 18.3191 16.4136C18.1229 15.9399 17.7907 15.535 17.3644 15.2502C16.9381 14.9653 16.4369 14.8133 15.9242 14.8133H6.95941C6.78596 14.8132 6.61802 14.7523 6.48486 14.6412C6.35171 14.53 6.26179 14.3757 6.23079 14.205L5.9373 12.5913H16.6769C17.1972 12.5912 17.701 12.4085 18.1005 12.075C18.5 11.7415 18.7697 11.2785 18.8627 10.7665L19.9885 4.57638C20.0076 4.46939 20.0029 4.35951 19.9747 4.25455C19.9465 4.14959 19.8956 4.05211 19.8256 3.96903ZM15.9242 16.2946C16.1439 16.2946 16.3587 16.3598 16.5414 16.4818C16.7241 16.6039 16.8665 16.7774 16.9506 16.9804C17.0347 17.1834 17.0567 17.4068 17.0138 17.6223C16.9709 17.8379 16.8651 18.0358 16.7097 18.1912C16.5544 18.3466 16.3564 18.4524 16.1409 18.4952C15.9254 18.5381 15.702 18.5161 15.499 18.432C15.296 18.3479 15.1225 18.2055 15.0004 18.0228C14.8783 17.8401 14.8132 17.6253 14.8132 17.4056C14.8132 17.1109 14.9302 16.8284 15.1386 16.62C15.3469 16.4117 15.6295 16.2946 15.9242 16.2946ZM7.03626 16.2946C7.25599 16.2946 7.47079 16.3598 7.65349 16.4818C7.83619 16.6039 7.97859 16.7774 8.06267 16.9804C8.14676 17.1834 8.16876 17.4068 8.1259 17.6223C8.08303 17.8379 7.97722 18.0358 7.82184 18.1912C7.66647 18.3466 7.46851 18.4524 7.253 18.4952C7.03749 18.5381 6.81411 18.5161 6.6111 18.432C6.40809 18.3479 6.23458 18.2055 6.1125 18.0228C5.99043 17.8401 5.92527 17.6253 5.92527 17.4056C5.92527 17.1109 6.04232 16.8284 6.25067 16.62C6.45902 16.4117 6.7416 16.2946 7.03626 16.2946Z" fill="#E94F26"/>
</svg>
