<svg width="22" height="12" viewBox="0 0 22 12" fill="none" xmlns="http://www.w3.org/2000/svg">
<path d="M6 12C4.33333 12 2.91667 11.4167 1.75 10.25C0.583333 9.08333 0 7.66667 0 6C0 4.33333 0.583333 2.91667 1.75 1.75C2.91667 0.583333 4.33333 0 6 0C7.35 0 8.52933 0.379 9.538 1.137C10.5467 1.895 11.2507 2.84933 11.65 4H20C20.55 4 21.021 4.196 21.413 4.588C21.805 4.98 22.0007 5.45067 22 6C22 6.6 21.7917 7.08333 21.375 7.45C20.9583 7.81667 20.5 8 20 8V10C20 10.55 19.804 11.021 19.412 11.413C19.02 11.805 18.5493 12.0007 18 12C17.45 12 16.979 11.804 16.587 11.412C16.195 11.02 15.9993 10.5493 16 10V8H11.65C11.25 9.15 10.5457 10.1043 9.537 10.863C8.52833 11.6217 7.34933 12.0007 6 12ZM6 8C6.55 8 7.021 7.804 7.413 7.412C7.805 7.02 8.00067 6.54933 8 6C8 5.45 7.804 4.979 7.412 4.587C7.02 4.195 6.54933 3.99933 6 4C5.45 4 4.979 4.196 4.587 4.588C4.195 4.98 3.99933 5.45067 4 6C4 6.55 4.196 7.021 4.588 7.413C4.98 7.805 5.45067 8.00067 6 8Z" fill="#E94F26"/>
</svg>
