<svg width="218" height="46" viewBox="0 0 218 46" fill="none" xmlns="http://www.w3.org/2000/svg">
<path d="M56 30.6667H59.734V21.4228C61.0096 23.4102 63.0737 24.5195 65.8336 24.5195C70.7736 24.5195 74.0206 20.9837 74.0206 15.8533C74.0206 10.6074 70.6809 7.04848 65.7641 7.04848C63.0737 7.04848 61.0096 8.15775 59.734 10.1452V7.18714H56V30.6667ZM59.734 15.7146C59.734 12.4793 61.9141 10.1452 64.9987 10.1452C68.0833 10.1452 70.2634 12.5255 70.2634 15.7146C70.2634 19.0193 68.0833 21.3534 64.9987 21.3534C61.9141 21.3534 59.734 19.0425 59.734 15.7146ZM77.5922 2.26476C77.5922 3.55891 78.5431 4.4833 79.7723 4.4833C81.0015 4.4833 81.9524 3.55891 81.9524 2.26476C81.9524 0.924392 81.0015 0 79.7723 0C78.5431 0 77.5922 0.924392 77.5922 2.26476ZM77.9169 24.3808H81.6277V7.18714H77.9169V24.3808ZM85.8488 24.3808L100.622 24.427V21.3765L90.4409 21.3534L100.321 9.7061V7.21025L86.1271 7.18714V10.2145H95.7056L85.8488 21.8618V24.3808ZM103.266 24.3808L118.04 24.427V21.3765L107.882 21.3534L117.762 9.7061V7.21025L103.568 7.18714V10.2145H113.146L103.266 21.8618V24.3808ZM120.591 19.2042C120.591 22.2547 122.91 24.5426 126.644 24.5426C129.149 24.5426 131.144 23.8031 132.373 22.2778V24.3808H136.037L136.014 13.1032C135.968 9.31324 133.463 7.04848 129.033 7.04848C125.74 7.04848 124 7.78799 121.588 9.2208L123.119 11.8091C124.835 10.6305 126.552 10.0528 128.222 10.0528C130.935 10.0528 132.327 11.3469 132.327 13.5192V14.0276H127.108C122.957 14.0739 120.591 16.0844 120.591 19.2042ZM124.093 19.0425C124.093 17.4017 125.23 16.7546 127.665 16.7546H132.327V18.3492C132.141 20.2211 130.1 21.6076 127.433 21.6076C125.346 21.6076 124.093 20.6139 124.093 19.0425ZM149.419 24.3808H153.107V15.8764C153.107 12.8721 154.939 10.6074 157.931 10.5149C160.459 10.5149 161.99 12.0864 161.99 14.7209V24.3808H165.724V15.8764C165.724 12.8721 167.51 10.6074 170.455 10.5149C172.983 10.5149 174.537 12.0864 174.537 14.7209V24.3808H178.271V13.681C178.271 9.56745 175.905 7.04848 171.939 7.04848C168.808 7.04848 166.489 8.31952 165.399 11.1851C164.587 8.57373 162.477 7.04848 159.392 7.04848C156.516 7.04848 154.313 8.08842 153.107 10.5149V7.18714H149.419V24.3808ZM181.843 19.2042C181.843 22.2547 184.185 24.5426 187.919 24.5426C190.424 24.5426 192.395 23.8031 193.648 22.2778V24.3808H197.312L197.266 13.1032C197.242 9.31324 194.738 7.04848 190.285 7.04848C187.015 7.04848 185.252 7.78799 182.863 9.2208L184.394 11.8091C186.11 10.6305 187.826 10.0528 189.473 10.0528C192.21 10.0528 193.601 11.3469 193.601 13.5192V14.0276H188.383C184.231 14.0739 181.843 16.0844 181.843 19.2042ZM185.368 19.0425C185.368 17.4017 186.504 16.7546 188.94 16.7546H193.601V18.3492C193.416 20.2211 191.375 21.6076 188.708 21.6076C186.62 21.6076 185.368 20.6139 185.368 19.0425ZM200.002 24.3808H204.154L208.584 18.0718L212.689 24.3808H216.979L211.042 15.5529L216.585 7.18714H212.503L208.584 13.057L204.71 7.18714H200.42L206.102 15.5529L200.002 24.3808Z" fill="#333333"/>
<path d="M22.5203 22.97L44.6877 19.142C44.8667 20.3782 44.9843 21.6746 44.9843 22.97C44.9843 35.6912 34.9342 46 22.5203 46C10.0481 46 0 35.6912 0 22.97C0 10.3078 10.0481 0 22.5203 0C25.062 0 27.6047 0.470865 30.0278 1.29636L22.5203 22.97ZM19.6237 25.4415L26.362 4.00433C15.1315 0.590059 3.30984 12.4878 3.30984 22.97C3.30984 33.8077 11.882 42.6429 22.5203 42.6429C33.1013 42.6429 41.6715 33.8077 41.6715 22.97V22.3819L19.6237 25.4415Z" fill="url(#paint0_linear_20_165)"/>
<path d="M46.3436 14.3073C40.7847 15.1899 35.2307 16.0144 29.6758 16.901L32.3934 10.0655C32.5121 10.1266 32.6307 10.1266 32.7474 10.1266C33.99 10.1266 34.9954 8.94944 34.9954 7.53586C34.9954 6.76947 34.6979 6.0021 34.165 5.53222L35.8802 1.35156C41.8534 3.46849 45.6931 7.53487 46.3436 14.3073ZM41.2019 9.71484C40.9769 9.71471 40.7541 9.75874 40.5462 9.84441C40.3383 9.93008 40.1493 10.0557 39.9901 10.2142C39.831 10.3726 39.7047 10.5607 39.6184 10.7678C39.5322 10.9748 39.4878 11.1968 39.4876 11.421C39.4875 11.6452 39.5317 11.8672 39.6177 12.0744C39.7037 12.2815 39.8297 12.4698 39.9887 12.6284C40.1477 12.787 40.3365 12.9129 40.5443 12.9988C40.7522 13.0847 40.9749 13.129 41.1999 13.1291C41.6543 13.1294 42.0902 12.9498 42.4116 12.6298C42.7331 12.3098 42.9139 11.8757 42.9141 11.423C42.9144 10.9702 42.7342 10.5359 42.413 10.2155C42.0919 9.89521 41.6563 9.7151 41.2019 9.71484Z" fill="url(#paint1_linear_20_165)"/>
<path d="M17.3781 27.3836L37.7116 25.5573V26.0902C37.6533 27.56 37.4151 28.8553 37.1195 30.0325C36.8186 29.61 36.4196 29.2663 35.9565 29.0308C35.4934 28.7953 34.98 28.6749 34.4601 28.68C32.6866 28.68 31.2699 30.0325 31.2699 31.6835C31.2699 33.3325 32.6866 34.687 34.4601 34.687H34.8131C30.9724 39.5759 24.0551 40.9304 17.909 39.045C18.1452 38.8716 18.2649 38.5751 18.2649 38.2815C18.2649 37.5733 17.6134 36.9852 16.9016 36.9852C16.1938 36.9852 15.6036 37.5161 15.5442 38.1623C10.105 35.6878 5.90736 30.4472 6.26325 22.9666C6.61717 14.0743 13.9496 2.88091 23.4629 5.76817L17.3781 27.3836ZM23.6429 29.3883C22.4635 29.3883 21.5164 30.2699 21.5164 31.387C21.5164 32.507 22.4635 33.3916 23.6429 33.3916C24.7679 33.3916 25.713 32.507 25.713 31.387C25.712 30.2699 24.7669 29.3883 23.6429 29.3883ZM10.8158 25.8519C9.2775 25.8519 8.09711 27.1482 8.09711 28.8553C8.09711 30.5083 9.2775 31.8007 10.8158 31.8007C12.2937 31.8007 13.5354 30.5073 13.5354 28.8553C13.5354 27.1492 12.2937 25.8519 10.8158 25.8519ZM14.6575 14.9569C13.5354 14.9569 12.6496 15.8396 12.6496 16.9025C12.6496 17.9604 13.5354 18.845 14.6575 18.845C15.7825 18.845 16.6673 17.9614 16.6673 16.9025C16.6673 15.8396 15.7815 14.9569 14.6575 14.9569Z" fill="url(#paint2_linear_20_165)"/>
<path d="M74.3944 37.7577L76.275 35.0531H75.6546L74.1375 37.2313L72.6156 35.0531H72L73.8855 37.7577V39.5302H74.3944V37.7577ZM81.9653 35C80.6033 35 79.6873 36.0191 79.6873 37.2941C79.6873 38.5643 80.6033 39.5833 81.9653 39.5833C83.3322 39.5833 84.2482 38.5643 84.2482 37.2941C84.2482 36.0191 83.3322 35 81.9653 35ZM81.9653 39.0907C80.8748 39.0907 80.1962 38.2987 80.1962 37.2941C80.1962 36.2847 80.8748 35.4926 81.9653 35.4926C83.0607 35.4926 83.7393 36.2847 83.7393 37.2941C83.7393 38.2987 83.0607 39.0907 81.9653 39.0907ZM91.7125 35.0531V37.6177C91.7125 38.656 91.0194 39.0907 90.3069 39.0907C89.5944 39.0907 88.9062 38.656 88.9062 37.6177V35.0531H88.3972V37.6032C88.3972 38.7913 89.1873 39.5833 90.3069 39.5833C91.4314 39.5833 92.2215 38.7864 92.2215 37.6032V35.0531H91.7125ZM97.1654 37.8109H98.7261L99.8118 39.5302H100.418L99.235 37.7239C99.7391 37.608 100.321 37.3182 100.321 36.4537C100.321 35.6037 99.7294 35.0531 98.8085 35.0531H96.6564V39.5302H97.1654V37.8109ZM97.1654 35.5361H98.7455C99.3853 35.5361 99.8118 35.8838 99.8118 36.4537C99.8118 37.1492 99.2011 37.3327 98.7212 37.3327H97.1654V35.5361ZM113.209 35.0531L111.629 37.1782L110.019 35.0531H109.428V39.5302H109.937V35.8259L111.629 37.9557L113.291 35.8259V39.5302H113.8V35.0531H113.209ZM120.305 35.0531H119.67L117.76 39.5302H118.322L118.875 38.231H121.1L121.647 39.5302H122.214L120.305 35.0531ZM119.069 37.7674L119.985 35.5796L120.901 37.7674H119.069ZM129.684 35.0531H129.039L127.701 36.8111L126.373 35.0531H125.728L127.396 37.2168L125.607 39.5302H126.252L127.701 37.608L129.16 39.5302H129.805L128.016 37.2168L129.684 35.0531ZM134.235 35.0531H133.726V39.5302H134.235V35.0531ZM142.509 35.0531L140.928 37.1782L139.319 35.0531H138.728V39.5302H139.237V35.8259L140.928 37.9557L142.591 35.8259V39.5302H143.1V35.0531H142.509ZM150.85 35.0531V37.6177C150.85 38.656 150.157 39.0907 149.445 39.0907C148.732 39.0907 148.044 38.656 148.044 37.6177V35.0531H147.535V37.6032C147.535 38.7913 148.325 39.5833 149.445 39.5833C150.569 39.5833 151.359 38.7864 151.359 37.6032V35.0531H150.85ZM159.575 35.0531L157.995 37.1782L156.385 35.0531H155.794V39.5302H156.303V35.8259L157.995 37.9557L159.657 35.8259V39.5302H160.166V35.0531H159.575ZM170.005 37.9364H171.518C172.472 37.9364 173.064 37.381 173.064 36.4924C173.064 35.6134 172.472 35.0531 171.518 35.0531H169.496V39.5302H170.005V37.9364ZM171.484 35.5361C172.191 35.5361 172.555 35.8983 172.555 36.4924C172.555 37.0961 172.191 37.4631 171.484 37.4631H170.005V35.5361H171.484ZM177.659 35.0531H177.15V39.5302H177.659V35.0531ZM185.356 35.5409V35.0531H181.837V35.5264H184.73L181.798 39.0521V39.5302H185.356V39.0569H182.423L185.356 35.5409ZM192.708 35.5409V35.0531H189.194V35.5264H192.083L189.156 39.0521V39.5302H192.708V39.0569H189.776L192.708 35.5409ZM198.879 35.0531H198.239L196.334 39.5302H196.896L197.444 38.231H199.673L200.221 39.5302H200.783L198.879 35.0531ZM197.643 37.7674L198.559 35.5796L199.475 37.7674H197.643Z" fill="#333333"/>
<defs>
<linearGradient id="paint0_linear_20_165" x1="-0.83491" y1="0.497859" x2="4070.91" y2="1905.98" gradientUnits="userSpaceOnUse">
<stop stop-color="#F05000"/>
<stop offset="1" stop-color="#F7AA00"/>
</linearGradient>
<linearGradient id="paint1_linear_20_165" x1="25.4854" y1="14.2183" x2="1534.17" y2="720.248" gradientUnits="userSpaceOnUse">
<stop stop-color="#F05000"/>
<stop offset="1" stop-color="#F7AA00"/>
</linearGradient>
<linearGradient id="paint2_linear_20_165" x1="2.57107" y1="7.93408" x2="2851.02" y2="1340.94" gradientUnits="userSpaceOnUse">
<stop stop-color="#F05000"/>
<stop offset="1" stop-color="#F7AA00"/>
</linearGradient>
</defs>
</svg>
