<svg width="19" height="19" viewBox="0 0 19 19" fill="none" xmlns="http://www.w3.org/2000/svg">
<path d="M11.2753 1.55575C11.3008 1.46056 11.3447 1.37133 11.4047 1.29315C11.4647 1.21496 11.5394 1.14935 11.6248 1.10008C11.7101 1.0508 11.8043 1.01882 11.902 1.00596C11.9996 0.993095 12.0989 0.999608 12.1941 1.02512C13.5844 1.38789 14.853 2.11473 15.869 3.13078C16.8851 4.14684 17.6119 5.41538 17.9747 6.80575C18.0002 6.90092 18.0067 7.00018 17.9939 7.09786C17.981 7.19555 17.949 7.28974 17.8997 7.37506C17.8505 7.46039 17.7849 7.53516 17.7067 7.59512C17.6285 7.65508 17.5393 7.69904 17.4441 7.7245C17.3807 7.74114 17.3155 7.74964 17.25 7.74981C17.0849 7.74986 16.9243 7.6954 16.7933 7.59488C16.6622 7.49436 16.5681 7.3534 16.5253 7.19387C16.2296 6.05869 15.6365 5.02292 14.8071 4.19335C13.9777 3.36378 12.942 2.77044 11.8069 2.4745C11.7116 2.44914 11.6223 2.40525 11.544 2.34533C11.4657 2.28542 11.4 2.21066 11.3506 2.12533C11.3013 2.04 11.2692 1.94577 11.2563 1.84803C11.2433 1.7503 11.2498 1.65098 11.2753 1.55575ZM11.0569 5.4745C12.3497 5.8195 13.1803 6.65106 13.5253 7.94387C13.5681 8.1034 13.6622 8.24436 13.7933 8.34488C13.9243 8.4454 14.0849 8.49986 14.25 8.49981C14.3155 8.49964 14.3807 8.49114 14.4441 8.4745C14.5393 8.44904 14.6285 8.40508 14.7067 8.34512C14.7849 8.28516 14.8505 8.21039 14.8997 8.12506C14.949 8.03974 14.981 7.94555 14.9939 7.84786C15.0067 7.75018 15.0002 7.65092 14.9747 7.55575C14.4947 5.7595 13.2403 4.50512 11.4441 4.02512C11.3489 3.9997 11.2497 3.99327 11.152 4.0062C11.0544 4.01913 10.9602 4.05117 10.8749 4.10049C10.7897 4.1498 10.7149 4.21543 10.655 4.29363C10.5951 4.37182 10.5512 4.46105 10.5258 4.55622C10.5004 4.65138 10.4939 4.75063 10.5069 4.84828C10.5198 4.94593 10.5518 5.04008 10.6012 5.12535C10.6505 5.21062 10.7161 5.28534 10.7943 5.34525C10.8725 5.40516 10.9617 5.44907 11.0569 5.4745ZM17.8472 12.8554L13.4306 10.8764L13.4184 10.8707C13.1892 10.7727 12.939 10.7333 12.6907 10.7562C12.4424 10.7792 12.2037 10.8636 11.9963 11.002C11.9718 11.0181 11.9484 11.0357 11.9259 11.0545L9.64407 12.9998C8.19845 12.2976 6.70595 10.8164 6.00376 9.3895L7.95188 7.07294C7.97063 7.0495 7.98845 7.02606 8.00532 7.00075C8.14072 6.79384 8.22287 6.55667 8.24446 6.31035C8.26605 6.06402 8.22641 5.81618 8.12907 5.58887V5.57762L6.14438 1.15356C6.0157 0.856621 5.79444 0.609262 5.51362 0.448409C5.2328 0.287556 4.9075 0.221836 4.58626 0.26106C3.31592 0.428223 2.14986 1.05209 1.30588 2.01615C0.461903 2.98021 -0.00228837 4.21852 8.4831e-06 5.49981C8.4831e-06 12.9436 6.05626 18.9998 13.5 18.9998C14.7813 19.0021 16.0196 18.5379 16.9837 17.6939C17.9477 16.85 18.5716 15.6839 18.7388 14.4136C18.7781 14.0924 18.7125 13.7672 18.5518 13.4864C18.3911 13.2056 18.144 12.9843 17.8472 12.8554Z" fill="#E94F26"/>
</svg>
