<svg width="22" height="16" viewBox="0 0 22 16" fill="none" xmlns="http://www.w3.org/2000/svg">
<path d="M18 10C17.7167 10 17.479 9.904 17.287 9.712C17.095 9.52 16.9993 9.28267 17 9V7H15C14.7167 7 14.479 6.904 14.287 6.712C14.095 6.52 13.9993 6.28267 14 6C14 5.71667 14.096 5.479 14.288 5.287C14.48 5.095 14.7173 4.99933 15 5H17V3C17 2.71667 17.096 2.479 17.288 2.287C17.48 2.095 17.7173 1.99933 18 2C18.2833 2 18.521 2.096 18.713 2.288C18.905 2.48 19.0007 2.71733 19 3V5H21C21.2833 5 21.521 5.096 21.713 5.288C21.905 5.48 22.0007 5.71733 22 6C22 6.28333 21.904 6.521 21.712 6.713C21.52 6.905 21.2827 7.00067 21 7H19V9C19 9.28333 18.904 9.521 18.712 9.713C18.52 9.905 18.2827 10.0007 18 10ZM8 8C6.9 8 5.95834 7.60833 5.175 6.825C4.39167 6.04167 4 5.1 4 4C4 2.9 4.39167 1.95833 5.175 1.175C5.95834 0.391667 6.9 0 8 0C9.1 0 10.0417 0.391667 10.825 1.175C11.6083 1.95833 12 2.9 12 4C12 5.1 11.6083 6.04167 10.825 6.825C10.0417 7.60833 9.1 8 8 8ZM1 16C0.71667 16 0.479003 15.904 0.287003 15.712C0.0950034 15.52 -0.000663206 15.2827 3.46021e-06 15V13.2C3.46021e-06 12.6333 0.146003 12.1123 0.438003 11.637C0.730003 11.1617 1.11734 10.7993 1.6 10.55C2.63334 10.0333 3.68334 9.64567 4.75 9.387C5.81667 9.12833 6.9 8.99933 8 9C9.1 9 10.1833 9.12933 11.25 9.388C12.3167 9.64667 13.3667 10.034 14.4 10.55C14.8833 10.8 15.271 11.1627 15.563 11.638C15.855 12.1133 16.0007 12.634 16 13.2V15C16 15.2833 15.904 15.521 15.712 15.713C15.52 15.905 15.2827 16.0007 15 16H1Z" fill="#E94F26"/>
</svg>
