<svg width="38" height="38" viewBox="0 0 38 38" fill="none" xmlns="http://www.w3.org/2000/svg">
<path d="M29.6856 15.1109L29.2023 15.2392C29.2214 15.3112 29.2112 15.3878 29.1739 15.4523C29.1366 15.5167 29.0753 15.5637 29.0033 15.583L29.0033 15.583L28.9957 15.5851C28.977 15.5905 28.9576 15.5932 28.9382 15.5933C28.8763 15.5929 28.8163 15.5721 28.7675 15.5341C28.7184 15.496 28.6833 15.4426 28.6677 15.3824L28.6678 15.3824L28.6665 15.3776C27.8345 12.281 25.7312 10.1738 22.6381 9.33743C22.5741 9.31408 22.5207 9.26826 22.4879 9.20835C22.4535 9.14559 22.4443 9.07207 22.4622 9.00279C22.4802 8.93351 22.5238 8.87366 22.5843 8.83544C22.641 8.79967 22.7084 8.78537 22.7744 8.79483C26.1028 9.69772 28.3132 11.9051 29.2024 15.2397L29.6856 15.1109ZM29.6856 15.1109C29.7387 15.3108 29.7103 15.5237 29.6067 15.7027C29.503 15.8817 29.3326 16.0124 29.1328 16.066L22.8828 8.3062C26.3946 9.25151 28.7481 11.5953 29.6856 15.1109ZM35.702 27.6431C35.9494 27.7505 36.1568 27.9332 36.2944 28.1656C36.4353 28.4034 36.4954 28.6805 36.4659 28.9553L36.4646 28.9676L36.4644 28.9676C36.1727 31.1696 35.0889 33.1899 33.4157 34.6509C31.7428 36.1117 29.5951 36.9133 27.3742 36.9058C27.3739 36.9058 27.3736 36.9058 27.3733 36.9058L27.375 36.4058L35.702 27.6431ZM35.702 27.6431L35.7025 27.6409L26.4759 23.5081L26.476 23.508L26.465 23.5034C26.2799 23.4257 26.079 23.393 25.8788 23.4082C25.6786 23.4233 25.4849 23.4858 25.3136 23.5905L25.2799 23.611L25.2499 23.6366L20.4211 27.7522L20.3729 27.7887C20.1109 27.9608 19.8092 28.0633 19.4963 28.0864C19.1795 28.1098 18.862 28.0509 18.5747 27.9155C15.1604 26.2664 11.746 22.8741 10.0984 19.5022C9.96156 19.217 9.90039 18.9013 9.92081 18.5856C9.94127 18.2694 10.0429 17.9638 10.2159 17.6983L10.2169 17.6966C10.2171 17.6964 10.2173 17.6961 10.2176 17.6956C10.2184 17.6946 10.2197 17.6928 10.2217 17.6902L10.2325 17.6762L10.2421 17.6639L14.3749 12.7491L14.4019 12.7169L14.4232 12.6807C14.5249 12.5077 14.5846 12.3133 14.5974 12.113C14.6102 11.9127 14.5758 11.7122 14.4969 11.5276L14.497 11.5276L14.4934 11.5196L10.3675 2.31944C10.2717 2.0892 10.1106 1.89188 9.90412 1.75178C9.69862 1.61235 9.45712 1.5357 9.20903 1.53101C9.1616 1.52857 9.11407 1.52882 9.06667 1.53177L9.04928 1.53285L9.032 1.53514C6.82999 1.82691 4.80963 2.91069 3.34864 4.58386C1.88785 6.25682 1.08629 8.40449 1.09377 10.6254L35.702 27.6431ZM35.2559 14.0198L35.2559 14.0197L35.2457 14.0226C35.227 14.028 35.2076 14.0307 35.1882 14.0308C35.1263 14.0304 35.0663 14.0096 35.0175 13.9716C34.9684 13.9335 34.9333 13.8801 34.9177 13.8199L34.9174 13.8185C34.2428 11.2366 32.8925 8.88097 31.0056 6.994C29.1187 5.10709 26.7632 3.75689 24.1814 3.08227C24.1096 3.06337 24.0482 3.01688 24.0106 2.95294C23.9731 2.8892 23.9622 2.81327 23.9803 2.74157C23.9991 2.66998 24.0455 2.6087 24.1092 2.57104C24.173 2.53338 24.249 2.5224 24.3208 2.54045C27 3.23856 29.4445 4.63878 31.4021 6.5967C33.3597 8.55465 34.7595 10.9994 35.4572 13.6788C35.4753 13.7506 35.4645 13.8266 35.4269 13.8904C35.3893 13.9545 35.3278 14.001 35.2559 14.0198ZM37.0171 29.0386L36.991 29.2598C36.64 31.5095 35.5084 33.5669 33.7907 35.069C32.0152 36.6216 29.735 37.4746 27.3763 37.4683H27.375C12.573 37.4683 0.531272 25.4265 0.531273 10.6246L0.531271 10.6235C0.526384 8.26585 1.37991 5.98702 2.93243 4.21266C4.48436 2.43897 6.62867 1.29064 8.9651 0.98194C9.36044 0.934401 9.76057 1.01612 10.1056 1.21492C10.4514 1.41412 10.7232 1.72011 10.8802 2.08694L10.8801 2.08697L10.8835 2.09445L15.0031 11.2982C15.1234 11.5783 15.1724 11.8838 15.1456 12.1874C15.119 12.4903 15.0178 12.7819 14.8512 13.0362C14.8349 13.0596 14.83 13.0663 14.8272 13.0696C14.8271 13.0698 14.827 13.0699 14.8268 13.0701L10.6877 17.9922L10.6623 18.0223L10.642 18.056C10.5344 18.2347 10.4728 18.4372 10.4626 18.6456C10.4524 18.8539 10.4941 19.0615 10.5838 19.2498L10.5838 19.2498L10.5859 19.2542C12.1669 22.4907 15.5323 25.8293 18.8041 27.4088L18.8041 27.4089L18.8111 27.4121C19.0003 27.4999 19.2081 27.5396 19.4163 27.5278C19.6245 27.5159 19.8265 27.453 20.0045 27.3444L20.038 27.324L20.0678 27.2986L24.9153 23.1821L24.9648 23.1443C25.2173 22.9806 25.5062 22.8812 25.8062 22.8549C26.1105 22.8281 26.4166 22.8774 26.6971 22.9982C26.698 22.9986 26.6989 22.999 26.6999 22.9994L35.9166 27.1297L35.9166 27.1297L35.9216 27.1319C36.2848 27.2899 36.5875 27.5606 36.7848 27.904C36.9821 28.2475 37.0636 28.6453 37.0171 29.0386Z" fill="#E94F26" stroke="#333333"/>
</svg>
